<svg xmlns="http://www.w3.org/2000/svg" viewBox="56 56 400 400" 
shape-rendering="geometricPrecision" width="100%" height="100%" preserveAspectRatio="xMidYMid meet"
>
<g transform="scale(1,-1) translate(0,-510)">
  <defs>
    <style>
      .phi-stroke { stroke:#1A8B9D; fill:none; stroke-linecap:round; stroke-linejoin:round; }
    </style>
  </defs>
  <!-- Spiral -->
  <path class="phi-stroke" stroke-width="20.0" d="M 256.000 96.000 L 259.124 96.892 L 262.214 97.840 L 265.268 98.842 L 268.285 99.899 L 271.265 101.009 L 274.207 102.171 L 277.109 103.384 L 279.972 104.647 L 282.794 105.959 L 285.575 107.318 L 288.313 108.724 L 291.009 110.176 L 293.662 111.673 L 296.270 113.213 L 298.834 114.795 L 301.353 116.418 L 303.826 118.082 L 306.253 119.785 L 308.632 121.525 L 310.965 123.302 L 313.250 125.115 L 315.487 126.963 L 317.675 128.844 L 319.815 130.757 L 321.905 132.701 L 323.945 134.675 L 325.936 136.678 L 327.876 138.709 L 329.766 140.766 L 331.605 142.849 L 333.393 144.956 L 335.130 147.087 L 336.816 149.239 L 338.451 151.412 L 340.033 153.605 L 341.565 155.817 L 343.044 158.046 L 344.472 160.292 L 345.848 162.553 L 347.172 164.828 L 348.444 167.117 L 349.664 169.417 L 350.833 171.729 L 351.950 174.051 L 353.016 176.381 L 354.030 178.720 L 354.993 181.065 L 355.904 183.415 L 356.765 185.771 L 357.575 188.130 L 358.334 190.492 L 359.043 192.855 L 359.702 195.219 L 360.310 197.583 L 360.870 199.946 L 361.380 202.306 L 361.841 204.663 L 362.254 207.016 L 362.618 209.364 L 362.935 211.706 L 363.203 214.041 L 363.425 216.369 L 363.601 218.687 L 363.729 220.997 L 363.813 223.295 L 363.850 225.583 L 363.843 227.859 L 363.792 230.122 L 363.696 232.371 L 363.557 234.605 L 363.376 236.825 L 363.152 239.029 L 362.886 241.216 L 362.579 243.386 L 362.231 245.537 L 361.843 247.670 L 361.416 249.783 L 360.950 251.877 L 360.446 253.949 L 359.904 256.000 L 359.324 258.029 L 358.709 260.035 L 358.058 262.019 L 357.371 263.978 L 356.650 265.913 L 355.896 267.823 L 355.108 269.708 L 354.288 271.567 L 353.436 273.400 L 352.553 275.206 L 351.640 276.984 L 350.697 278.735 L 349.726 280.457 L 348.726 282.151 L 347.698 283.816 L 346.644 285.452 L 345.564 287.058 L 344.458 288.634 L 343.328 290.179 L 342.173 291.694 L 340.996 293.178 L 339.796 294.631 L 338.575 296.052 L 337.333 297.441 L 336.070 298.798 L 334.788 300.123 L 333.487 301.416 L 332.168 302.676 L 330.832 303.903 L 329.480 305.098 L 328.111 306.259 L 326.728 307.387 L 325.330 308.482 L 323.919 309.543 L 322.495 310.571 L 321.059 311.565 L 319.611 312.526 L 318.153 313.453 L 316.684 314.347 L 315.207 315.207 L 313.720 316.033 L 312.226 316.825 L 310.725 317.584 L 309.218 318.310 L 307.704 319.002 L 306.186 319.660 L 304.663 320.285 L 303.136 320.877 L 301.607 321.436 L 300.075 321.962 L 298.541 322.455 L 297.006 322.916 L 295.471 323.343 L 293.936 323.739 L 292.401 324.102 L 290.869 324.433 L 289.338 324.733 L 287.810 325.001 L 286.285 325.237 L 284.764 325.443 L 283.248 325.618 L 281.736 325.762 L 280.231 325.875 L 278.731 325.959 L 277.238 326.013 L 275.753 326.038 L 274.275 326.033 L 272.805 326.000 L 271.345 325.938 L 269.894 325.847 L 268.452 325.729 L 267.021 325.584 L 265.601 325.411 L 264.192 325.212 L 262.795 324.986 L 261.410 324.734 L 260.037 324.457 L 258.678 324.154 L 257.332 323.827 L 256.000 323.475 L 254.682 323.099 L 253.379 322.699 L 252.092 322.276 L 250.819 321.830 L 249.562 321.362 L 248.322 320.872 L 247.098 320.361 L 245.891 319.828 L 244.701 319.275 L 243.528 318.702 L 242.373 318.108 L 241.236 317.496 L 240.117 316.865 L 239.017 316.216 L 237.936 315.549 L 236.874 314.864 L 235.831 314.162 L 234.808 313.444 L 233.804 312.710 L 232.820 311.961 L 231.857 311.196 L 230.913 310.417 L 229.991 309.624 L 229.088 308.817 L 228.207 307.997 L 227.346 307.165 L 226.507 306.320 L 225.689 305.463 L 224.892 304.596 L 224.116 303.718 L 223.362 302.829 L 222.629 301.931 L 221.919 301.023 L 221.229 300.106 L 220.562 299.182 L 219.916 298.249 L 219.292 297.309 L 218.690 296.362 L 218.110 295.408 L 217.551 294.449 L 217.015 293.483 L 216.500 292.513 L 216.007 291.538 L 215.536 290.559 L 215.087 289.577 L 214.659 288.590 L 214.253 287.601 L 213.869 286.610 L 213.506 285.617 L 213.164 284.622 L 212.844 283.626 L 212.545 282.629 L 212.267 281.632 L 212.011 280.635 L 211.775 279.639 L 211.560 278.644 L 211.365 277.649 L 211.191 276.657 L 211.037 275.667 L 210.904 274.679 L 210.791 273.695 L 210.697 272.713 L 210.623 271.735 L 210.569 270.762 L 210.534 269.792 L 210.518 268.827 L 210.521 267.868 L 210.542 266.913 L 210.583 265.965 L 210.641 265.022 L 210.718 264.086 L 210.812 263.157 L 210.924 262.235 L 211.054 261.320 L 211.201 260.412 L 211.364 259.513 L 211.544 258.622 L 211.741 257.739 L 211.954 256.865 L 212.182 256.000 L 212.426 255.144 L 212.686 254.298 L 212.961 253.462 L 213.250 252.636 L 213.554 251.819 L 213.872 251.014 L 214.204 250.219 L 214.550 249.435 L 214.910 248.662 L 215.282 247.901 L 215.667 247.151 L 216.065 246.412 L 216.474 245.686 L 216.896 244.972 L 217.329 244.269 L 217.774 243.580 L 218.230 242.902 L 218.696 242.238 L 219.173 241.586 L 219.659 240.947 L 220.156 240.321 L 220.662 239.709 L 221.177 239.110 L 221.701 238.524 L 222.233 237.951 L 222.774 237.392 L 223.322 236.847 L 223.879 236.316 L 224.442 235.798 L 225.012 235.295 L 225.589 234.805 L 226.173 234.329 L 226.762 233.868 L 227.357 233.420 L 227.958 232.987 L 228.564 232.567 L 229.174 232.162 L 229.789 231.771 L 230.408 231.394 L 231.032 231.032 L 231.658 230.683 L 232.288 230.349 L 232.921 230.029 L 233.557 229.723 L 234.195 229.431 L 234.836 229.153 L 235.478 228.890 L 236.122 228.640 L 236.767 228.404 L 237.413 228.183 L 238.060 227.975 L 238.707 227.781 L 239.355 227.600 L 240.002 227.433 L 240.649 227.280 L 241.295 227.141 L 241.941 227.014 L 242.585 226.901 L 243.228 226.801 L 243.870 226.715 L 244.509 226.641 L 245.147 226.580 L 245.782 226.532 L 246.414 226.497 L 247.043 226.474 L 247.670 226.464 L 248.293 226.466 L 248.913 226.480 L 249.529 226.506 L 250.141 226.544 L 250.749 226.594 L 251.352 226.655 L 251.951 226.728 L 252.545 226.812 L 253.135 226.907 L 253.719 227.014 L 254.297 227.131 L 254.871 227.258 L 255.438 227.396 L 256.000 227.545 L 256.556 227.703 L 257.105 227.872 L 257.648 228.050 L 258.185 228.238 L 258.715 228.436 L 259.238 228.642 L 259.754 228.858 L 260.263 229.083 L 260.765 229.316 L 261.260 229.558 L 261.747 229.808 L 262.226 230.066 L 262.698 230.332 L 263.162 230.606 L 263.618 230.887 L 264.066 231.176 L 264.506 231.472 L 264.937 231.775 L 265.360 232.084 L 265.775 232.400 L 266.182 232.723 L 266.579 233.051 L 266.969 233.386 L 267.349 233.726 L 267.721 234.072 L 268.084 234.423 L 268.438 234.779 L 268.783 235.140 L 269.119 235.506 L 269.446 235.877 L 269.764 236.251 L 270.073 236.630 L 270.373 237.013 L 270.663 237.400 L 270.945 237.790 L 271.217 238.183 L 271.480 238.579 L 271.734 238.979 L 271.979 239.381 L 272.214 239.786 L 272.441 240.193 L 272.658 240.602 L 272.866 241.013 L 273.064 241.426 L 273.254 241.840 L 273.434 242.256 L 273.605 242.673 L 273.767 243.091 L 273.920 243.510 L 274.065 243.930 L 274.200 244.350 L 274.326 244.770 L 274.443 245.191 L 274.551 245.611 L 274.651 246.031 L 274.741 246.451 L 274.823 246.870 L 274.897 247.289 L 274.961 247.706 L 275.018 248.123 L 275.066 248.538 L 275.105 248.952 L 275.136 249.364 L 275.159 249.775 L 275.174 250.184 L 275.181 250.591 L 275.179 250.995 L 275.170 251.398 L 275.153 251.798 L 275.129 252.195 L 275.096 252.590 L 275.056 252.982 L 275.009 253.371 L 274.954 253.757 L 274.893 254.139 L 274.824 254.519 L 274.748 254.894 L 274.665 255.267 L 274.575 255.635 L 274.479 256.000 L 274.376 256.361 L 274.266 256.718 L 274.150 257.070 L 274.028 257.419 L 273.900 257.763 L 273.766 258.103 L 273.626 258.438 L 273.480 258.769 L 273.329 259.094 L 273.172 259.416 L 273.009 259.732 L 272.841 260.043 L 272.669 260.350 L 272.491 260.651 L 272.308 260.947 L 272.121 261.238 L 271.928 261.523 L 271.732 261.804 L 271.531 262.079 L 271.325 262.348 L 271.116 262.612 L 270.903 262.870 L 270.686 263.123 L 270.465 263.370 L 270.240 263.611 L 270.012 263.847 L 269.781 264.077 L 269.546 264.301 L 269.309 264.519 L 269.068 264.732 L 268.825 264.938 L 268.579 265.139 L 268.330 265.334 L 268.079 265.522 L 267.826 265.705 L 267.570 265.882 L 267.313 266.053 L 267.054 266.218 L 266.792 266.377 L 266.530 266.530 L 266.265 266.677 L 266.000 266.817 L 265.733 266.952 L 265.464 267.081 L 265.195 267.205 L 264.925 267.322 L 264.654 267.433 L 264.383 267.538 L 264.111 267.638 L 263.838 267.731 L 263.566 267.819 L 263.293 267.901 L 263.020 267.977 L 262.747 268.047 L 262.474 268.112 L 262.201 268.171 L 261.929 268.224 L 261.657 268.271 L 261.386 268.314 L 261.116 268.350 L 260.846 268.381 L 260.577 268.407 L 260.309 268.427 L 260.043 268.442 L 259.777 268.451 L 259.513 268.456 L 259.250 268.455 L 258.989 268.449 L 258.729 268.438 L 258.471 268.422 L 258.215 268.401 L 257.960 268.375 L 257.707 268.344 L 257.457 268.309 L 257.208 268.269 L 256.962 268.224 L 256.718 268.175 L 256.476 268.121 L 256.237 268.063 L 256.000 268.000"/>
  <!-- Circle -->
  <circle class="phi-stroke" stroke-width="36.0" cx="256" cy="256" r="160.0"/>
  <!-- Extended vertical line -->
  <line class="phi-stroke" stroke-width="36.0"
        x1="256" y1="76.0"
        x2="256" y2="436.0"/>
        </g>
</svg>
